<?xml version="1.0" encoding="UTF-8" standalone="no"?>
<!DOCTYPE svg PUBLIC "-//W3C//DTD SVG 20010904//EN"
              "http://www.w3.org/TR/2001/REC-SVG-20010904/DTD/svg10.dtd">

<svg xmlns="http://www.w3.org/2000/svg"
     width="0.5in" height="0.5in"
     viewBox="0 0 32 32">
      <title>Association, culture, jeunesse</title>
      <path fill="#6d87a4" style="fill: var(--color1, #6d87a4)" d="M2.825 21.916c0.029 0.086 0.057 0.201 0.115 0.316s0.086 0.259 0.144 0.431l0.086 0.23 0.086 0.259c0.057 0.172 0.115 0.345 0.172 0.546 0.029 0.086 0.057 0.201 0.086 0.287s0.057 0.201 0.086 0.287 0.057 0.201 0.086 0.316 0.057 0.201 0.086 0.316 0.057 0.201 0.086 0.316 0.057 0.201 0.086 0.316 0.086 0.402 0.144 0.575h0.488c0-0.029 0-0.057 0-0.086 0-0.115-0.029-0.201-0.029-0.316 0-0.057-0.029-0.115-0.029-0.172l-0.086-0.172c-0.029-0.115-0.029-0.23-0.057-0.316s-0.057-0.23-0.086-0.316-0.057-0.23-0.086-0.316-0.057-0.201-0.115-0.316c-0.057-0.201-0.144-0.402-0.23-0.603s-0.172-0.373-0.259-0.546c-0.029-0.086-0.086-0.172-0.115-0.23l-0.144-0.23c-0.086-0.144-0.172-0.259-0.23-0.373s-0.144-0.201-0.201-0.287-0.115-0.144-0.144-0.172l-0.029-0.029 0.029 0.086c0 0.029 0.029 0.115 0.057 0.201z"></path>
      <path fill="#6d87a4" style="fill: var(--color1, #6d87a4)" d="M4.922 24.961c0 0.115 0 0.23 0.029 0.316 0 0.201 0.029 0.402 0.057 0.575 0 0.086 0.029 0.172 0.029 0.259h0.259l0.029-0.259 0.115-1.206 0.172-2.068c0.029-0.23 0.057-0.46 0.086-0.661 0-0.115 0.029-0.23 0.029-0.316s0.029-0.201 0.029-0.316l0.029-0.287c0-0.086 0.029-0.201 0.029-0.287 0.029-0.172 0.057-0.345 0.086-0.488 0-0.086 0.029-0.144 0.029-0.201l0.029-0.172c0.029-0.115 0.029-0.172 0.029-0.23v-0.086l-0.029 0.086c-0.029 0.057-0.057 0.115-0.115 0.201l-0.057 0.144c-0.029 0.057-0.057 0.115-0.086 0.172-0.057 0.144-0.115 0.287-0.172 0.46s-0.115 0.373-0.172 0.546c-0.029 0.086-0.057 0.201-0.086 0.316s-0.057 0.23-0.086 0.316-0.057 0.23-0.057 0.345-0.029 0.23-0.057 0.345c-0.029 0.23-0.057 0.488-0.086 0.718s-0.057 0.517-0.057 0.747-0.029 0.488 0 0.689c0 0.144 0 0.259 0 0.345z"></path>
      <path fill="#6d87a4" style="fill: var(--color1, #6d87a4)" d="M5.612 26.139c0.029-0.115 0.086-0.23 0.115-0.345s0.086-0.316 0.115-0.488c0.029-0.086 0.029-0.172 0.057-0.259s0.029-0.172 0.057-0.259 0.057-0.373 0.086-0.546 0.029-0.373 0.057-0.546 0.029-0.373 0.029-0.517 0-0.345 0-0.488-0.029-0.316-0.029-0.46c-0.029-0.287-0.057-0.517-0.086-0.661s-0.029-0.259-0.029-0.259-0.029 0.086-0.057 0.259-0.115 0.373-0.144 0.632c-0.029 0.144-0.057 0.287-0.057 0.431l-0.057 0.23c-0.029 0.086-0.029 0.172-0.029 0.259-0.029 0.172-0.057 0.345-0.057 0.517s-0.029 0.345-0.057 0.546-0.029 0.345-0.057 0.517c0 0.086-0.029 0.172-0.029 0.259s-0.029 0.172-0.029 0.259-0.029 0.345-0.057 0.488-0.029 0.287-0.057 0.431h0.316z"></path>
      <path fill="#6d87a4" style="fill: var(--color1, #6d87a4)" d="M6.301 26.139c0.029-0.201 0.086-0.373 0.144-0.575 0.029-0.086 0.057-0.201 0.057-0.287s0.029-0.201 0.057-0.287 0.086-0.402 0.144-0.603c0.029-0.086 0.057-0.201 0.057-0.287l0.057-0.287c0.029-0.086 0.029-0.201 0.057-0.287l0.057-0.259c0.029-0.172 0.086-0.345 0.115-0.488s0.086-0.287 0.086-0.431 0.057-0.23 0.086-0.316 0.029-0.172 0.057-0.201v-0.086l-0.029 0.057c-0.029 0.029-0.057 0.086-0.115 0.172s-0.115 0.172-0.172 0.287-0.144 0.23-0.201 0.373-0.144 0.287-0.201 0.46c-0.029 0.086-0.086 0.172-0.115 0.259s-0.057 0.172-0.086 0.287-0.144 0.373-0.172 0.575-0.115 0.402-0.144 0.603-0.086 0.431-0.115 0.632c-0.029 0.115-0.029 0.201-0.057 0.316s-0.029 0.201-0.029 0.287v0.086h0.46z"></path>
      <path fill="#6d87a4" style="fill: var(--color1, #6d87a4)" d="M4.319 22.261c0 0.144 0 0.316 0 0.488s0 0.345 0.029 0.517 0 0.373 0.029 0.546 0.029 0.373 0.029 0.546c0 0.086 0 0.172 0.029 0.259l0.029 0.259c0 0.172 0.029 0.345 0.029 0.488s0.029 0.316 0.057 0.46 0.029 0.201 0.029 0.287h0.259c0-0.086 0.029-0.172 0.029-0.259 0.029-0.287 0.057-0.603 0.086-0.948 0-0.172 0-0.345 0-0.546s0-0.373 0-0.546-0.029-0.373-0.029-0.546c0-0.086 0-0.201-0.029-0.287 0-0.086-0.029-0.172-0.029-0.259-0.029-0.172-0.057-0.345-0.086-0.488s-0.057-0.316-0.115-0.431-0.086-0.259-0.115-0.373-0.086-0.201-0.115-0.287c-0.057-0.144-0.115-0.23-0.115-0.23s0 0.086 0 0.259c0 0.086 0 0.172 0 0.287s0 0.23 0 0.373 0 0.259 0 0.431z"></path>
      <path fill="#dbdbdb" style="fill: var(--color2, #dbdbdb)" d="M2.911 18.095l3.677-6.923 1.178 15.053z"></path>
      <path fill="#dbdbdb" style="fill: var(--color2, #dbdbdb)" d="M7.335 11l12.64 3.447-1.149 11.491z"></path>
      <path fill="#dbdbdb" style="fill: var(--color2, #dbdbdb)" d="M20.435 14.648l8.331 2.873-9.48 7.756z"></path>
      <path fill="#6d87a4" style="fill: var(--color1, #6d87a4)" d="M29.053 17.808l-5.171 8.331h-4.884z"></path>
      <path fill="#e8e8e8" style="fill: var(--color3, #e8e8e8)" d="M18.424 26.139h-10.054l-1.436-14.938z"></path>
      <path fill="#6d87a4" style="fill: var(--color1, #6d87a4)" d="M13.54 24.415v1.724h-3.447v-3.735h1.724z"></path>
      <path fill="#dbdbdb" style="fill: var(--color2, #dbdbdb)" d="M1.475 26.426h29.301c0.172 0 0.287 0.115 0.287 0.287s-0.115 0.287-0.287 0.287h-29.301c-0.172 0-0.287-0.115-0.287-0.287s0.115-0.287 0.287-0.287z"></path>
    </svg>