<?xml version="1.0" encoding="UTF-8" standalone="no"?>
<!DOCTYPE svg PUBLIC "-//W3C//DTD SVG 20010904//EN"
              "http://www.w3.org/TR/2001/REC-SVG-20010904/DTD/svg10.dtd">

<svg xmlns="http://www.w3.org/2000/svg"
     width="0.5in" height="0.5in"
     viewBox="0 0 32 32">
      <title>Sécurité, défense</title>
      <path fill="#6d87a4" style="fill: var(--color1, #6d87a4)" d="M12.484 9.436c0.16 0.080 0.348 0.107 0.508 0.107v0c0.294-0.027 0.615-0.080 0.882-0.187s0.562-0.16 0.856-0.187c0.214 0 0.428 0.053 0.615 0.16 0.027 0 0.027 0 0.053 0s0.027-0.027 0.027-0.053v-2.059c0-0.027 0-0.027-0.027-0.053-0.187-0.134-0.428-0.187-0.668-0.187-0.294 0.027-0.615 0.080-0.882 0.187s-0.562 0.16-0.856 0.187c-0.187 0-0.348-0.027-0.508-0.107v2.193z"></path>
      <path fill="#dbdbdb" style="fill: var(--color2, #dbdbdb)" d="M12.484 7.083c0.080 0 0.134 0.053 0.134 0.134v3.476c0 0.080-0.053 0.134-0.134 0.134s-0.134-0.053-0.134-0.134v-3.476c0-0.080 0.053-0.134 0.134-0.134z"></path>
      <path fill="#6d87a4" style="fill: var(--color1, #6d87a4)" d="M11.040 10.666h7.219c0.16 0 0.267 0.107 0.267 0.267v2.3c0 0.16-0.107 0.267-0.267 0.267h-7.219c-0.16 0-0.267-0.107-0.267-0.267v-2.3c0-0.16 0.107-0.267 0.267-0.267z"></path>
      <path fill="#6d87a4" style="fill: var(--color1, #6d87a4)" d="M23.875 21.896h4.278c0.16 0 0.267 0.107 0.267 0.267v3.743c0 0.16-0.107 0.267-0.267 0.267h-4.278c-0.16 0-0.267-0.107-0.267-0.267v-3.743c0-0.16 0.107-0.267 0.267-0.267z"></path>
      <path fill="#e8e8e8" style="fill: var(--color3, #e8e8e8)" d="M8.367 26.174v-9.385c0-0.134-0.134-0.267-0.267-0.267h-5.374c-0.134 0-0.267 0.107-0.267 0.267v9.385h5.909z"></path>
      <path fill="#6d87a4" style="fill: var(--color1, #6d87a4)" d="M4.677 18.447c0.134 0 0.267 0.134 0.241 0.267v1.792c0 0.134-0.107 0.241-0.267 0.241-0.134 0-0.241-0.107-0.241-0.241v-1.792c0.027-0.16 0.134-0.267 0.267-0.267z"></path>
      <path fill="#6d87a4" style="fill: var(--color1, #6d87a4)" d="M6.201 18.447c0.16 0 0.267 0.107 0.267 0.267v1.792c-0.053 0.134-0.187 0.214-0.348 0.16-0.080-0.027-0.134-0.080-0.16-0.16v-1.792c0-0.16 0.107-0.267 0.241-0.267z"></path>
      <path fill="#6d87a4" style="fill: var(--color1, #6d87a4)" d="M4.677 22.511c0.134 0 0.267 0.134 0.241 0.267v1.765c0 0.134-0.107 0.267-0.241 0.267s-0.267-0.107-0.267-0.241c0 0 0 0 0 0v-1.818c0.027-0.134 0.134-0.241 0.267-0.241z"></path>
      <path fill="#6d87a4" style="fill: var(--color1, #6d87a4)" d="M6.201 22.511c0.16 0 0.267 0.107 0.267 0.267v1.765c-0.053 0.134-0.187 0.214-0.348 0.16-0.080-0.027-0.134-0.080-0.16-0.16v-1.792c0-0.134 0.107-0.241 0.241-0.241z"></path>
      <path fill="#cdcdcd" style="fill: var(--color5, #cdcdcd)" d="M1.655 26.442h28.637c0.16 0 0.267 0.107 0.267 0.267s-0.107 0.267-0.267 0.267h-28.637c-0.16 0-0.267-0.107-0.267-0.267s0.134-0.267 0.267-0.267z"></path>
      <path fill="#dbdbdb" style="fill: var(--color2, #dbdbdb)" d="M23.875 12.538h-15.508c-0.134 0-0.267 0.107-0.267 0.241v13.369h3.182v-6.177c0-0.134 0.134-0.267 0.267-0.267h8.904c0.134 0 0.267 0.107 0.267 0.267v6.203h3.422v-13.369c0-0.16-0.134-0.267-0.267-0.267z"></path>
      <path fill="#6d87a4" style="fill: var(--color1, #6d87a4)" d="M12.377 21.361h3.476v4.813h-3.476v-4.813z"></path>
      <path fill="#6d87a4" style="fill: var(--color1, #6d87a4)" d="M16.121 21.361h3.476v4.813h-3.476v-4.813z"></path>
      <path fill="#c9c9c9" style="fill: var(--color8, #c9c9c9)" d="M9.971 18.687h12.032c0.16 0 0.267 0.107 0.267 0.267v1.070c0 0.16-0.107 0.267-0.267 0.267h-12.032c-0.16 0-0.267-0.107-0.267-0.267v-1.070c0-0.16 0.107-0.267 0.267-0.267z"></path>
      <path fill="#6d87a4" style="fill: var(--color1, #6d87a4)" d="M17.645 14.115v1.497c0 0.481-0.187 0.963-0.508 1.337-0.267 0.321-0.642 0.562-1.070 0.695-0.053 0.027-0.107 0.027-0.16 0-0.428-0.134-0.829-0.374-1.123-0.749-0.294-0.348-0.455-0.802-0.455-1.257 0-0.321 0-1.524 0-1.524h3.316z"></path>
    </svg>