<?xml version="1.0" encoding="UTF-8" standalone="no"?>
<!DOCTYPE svg PUBLIC "-//W3C//DTD SVG 20010904//EN"
              "http://www.w3.org/TR/2001/REC-SVG-20010904/DTD/svg10.dtd">

<svg xmlns="http://www.w3.org/2000/svg"
     width="0.5in" height="0.5in"
     viewBox="0 0 32 32">
      <title>Droit, justice</title>
      <path fill="#dbdbdb" style="fill: var(--color2, #dbdbdb)" d="M2.793 17.666h27.265v8.597h-27.265v-8.597z"></path>
      <path fill="#dbdbdb" style="fill: var(--color2, #dbdbdb)" d="M1.688 26.509h29.229c0.074 0 0.123 0.049 0.123 0.123v0.246c0 0.074-0.049 0.123-0.123 0.123h-29.229c-0.074 0-0.123-0.049-0.123-0.123v-0.246c0-0.074 0.049-0.123 0.123-0.123z"></path>
      <path fill="#6d87a4" style="fill: var(--color1, #6d87a4)" d="M5.25 19.386h0.737c0.147 0 0.246 0.098 0.246 0.246v1.228c0 0.147-0.098 0.246-0.246 0.246h-0.737c-0.147 0-0.246-0.098-0.246-0.246v-1.228c0-0.147 0.098-0.246 0.246-0.246z"></path>
      <path fill="#6d87a4" style="fill: var(--color1, #6d87a4)" d="M7.46 19.386h0.737c0.147 0 0.246 0.098 0.246 0.246v1.228c0 0.147-0.098 0.246-0.246 0.246h-0.737c-0.147 0-0.246-0.098-0.246-0.246v-1.228c0-0.147 0.098-0.246 0.246-0.246z"></path>
      <path fill="#6d87a4" style="fill: var(--color1, #6d87a4)" d="M9.917 19.386h0.737c0.147 0 0.246 0.098 0.246 0.246v1.228c0 0.147-0.098 0.246-0.246 0.246h-0.737c-0.147 0-0.246-0.098-0.246-0.246v-1.228c0-0.147 0.098-0.246 0.246-0.246z"></path>
      <path fill="#6d87a4" style="fill: var(--color1, #6d87a4)" d="M5.25 22.825h0.737c0.147 0 0.246 0.098 0.246 0.246v1.228c0 0.147-0.098 0.246-0.246 0.246h-0.737c-0.147 0-0.246-0.098-0.246-0.246v-1.228c0-0.147 0.098-0.246 0.246-0.246z"></path>
      <path fill="#6d87a4" style="fill: var(--color1, #6d87a4)" d="M7.46 22.825h0.737c0.147 0 0.246 0.098 0.246 0.246v1.228c0 0.147-0.098 0.246-0.246 0.246h-0.737c-0.147 0-0.246-0.098-0.246-0.246v-1.228c0-0.147 0.098-0.246 0.246-0.246z"></path>
      <path fill="#6d87a4" style="fill: var(--color1, #6d87a4)" d="M9.917 22.825h0.737c0.147 0 0.246 0.098 0.246 0.246v1.228c0 0.147-0.098 0.246-0.246 0.246h-0.737c-0.147 0-0.246-0.098-0.246-0.246v-1.228c0-0.147 0.098-0.246 0.246-0.246z"></path>
      <path fill="#6d87a4" style="fill: var(--color1, #6d87a4)" d="M14.092 19.386h0.737c0.147 0 0.246 0.098 0.246 0.246v1.228c0 0.147-0.098 0.246-0.246 0.246h-0.737c-0.147 0-0.246-0.098-0.246-0.246v-1.228c0-0.147 0.098-0.246 0.246-0.246z"></path>
      <path fill="#6d87a4" style="fill: var(--color1, #6d87a4)" d="M18.145 19.386h0.737c0.147 0 0.246 0.098 0.246 0.246v1.228c0 0.147-0.098 0.246-0.246 0.246h-0.737c-0.147 0-0.246-0.098-0.246-0.246v-1.228c0-0.147 0.098-0.246 0.246-0.246z"></path>
      <path fill="#6d87a4" style="fill: var(--color1, #6d87a4)" d="M15.198 25.772v-2.702c0-0.147-0.098-0.246-0.246-0.246h-0.737c-0.147 0-0.246 0.098-0.246 0.246v2.702h1.228z"></path>
      <path fill="#e8e8e8" style="fill: var(--color3, #e8e8e8)" d="M16.303 13.737l14.983 3.684h-29.966z"></path>
      <path fill="#6d87a4" style="fill: var(--color1, #6d87a4)" d="M19.128 25.772v-2.702c0-0.147-0.098-0.246-0.246-0.246h-0.737c-0.147 0-0.246 0.098-0.246 0.246v2.702h1.228z"></path>
      <path fill="#6d87a4" style="fill: var(--color1, #6d87a4)" d="M22.444 19.386h0.737c0.147 0 0.246 0.098 0.246 0.246v1.228c0 0.147-0.098 0.246-0.246 0.246h-0.737c-0.147 0-0.246-0.098-0.246-0.246v-1.228c0-0.147 0.098-0.246 0.246-0.246z"></path>
      <path fill="#6d87a4" style="fill: var(--color1, #6d87a4)" d="M24.654 19.386h0.737c0.147 0 0.246 0.098 0.246 0.246v1.228c0 0.147-0.098 0.246-0.246 0.246h-0.737c-0.147 0-0.246-0.098-0.246-0.246v-1.228c0-0.147 0.098-0.246 0.246-0.246z"></path>
      <path fill="#6d87a4" style="fill: var(--color1, #6d87a4)" d="M27.11 19.386h0.737c0.147 0 0.246 0.098 0.246 0.246v1.228c0 0.147-0.098 0.246-0.246 0.246h-0.737c-0.147 0-0.246-0.098-0.246-0.246v-1.228c0-0.147 0.098-0.246 0.246-0.246z"></path>
      <path fill="#6d87a4" style="fill: var(--color1, #6d87a4)" d="M22.444 22.825h0.737c0.147 0 0.246 0.098 0.246 0.246v1.228c0 0.147-0.098 0.246-0.246 0.246h-0.737c-0.147 0-0.246-0.098-0.246-0.246v-1.228c0-0.147 0.098-0.246 0.246-0.246z"></path>
      <path fill="#6d87a4" style="fill: var(--color1, #6d87a4)" d="M24.654 22.825h0.737c0.147 0 0.246 0.098 0.246 0.246v1.228c0 0.147-0.098 0.246-0.246 0.246h-0.737c-0.147 0-0.246-0.098-0.246-0.246v-1.228c0-0.147 0.098-0.246 0.246-0.246z"></path>
      <path fill="#6d87a4" style="fill: var(--color1, #6d87a4)" d="M27.11 22.825h0.737c0.147 0 0.246 0.098 0.246 0.246v1.228c0 0.147-0.098 0.246-0.246 0.246h-0.737c-0.147 0-0.246-0.098-0.246-0.246v-1.228c0-0.147 0.098-0.246 0.246-0.246z"></path>
      <path fill="#6d87a4" style="fill: var(--color1, #6d87a4)" d="M13.355 25.281l-0.246-6.878h0.246v-0.246h-1.228v0.246h0.246l-0.246 6.878h-0.491v0.491h1.965v-0.491z"></path>
      <path fill="#6d87a4" style="fill: var(--color1, #6d87a4)" d="M22.468 17.175l-0.319-0.737-5.576-3.439-5.576 3.439-0.368 0.737h0.737v0.197h10.341v-0.197z"></path>
      <path fill="#637b95" style="fill: var(--color4, #637b95)" d="M11.39 25.772h10.316c0.147 0 0.246 0.098 0.246 0.246s-0.098 0.246-0.246 0.246h-10.316c-0.147 0-0.246-0.098-0.246-0.246s0.098-0.246 0.246-0.246z"></path>
      <path fill="#6d87a4" style="fill: var(--color1, #6d87a4)" d="M17.163 25.281l-0.246-6.878h0.246v-0.246h-1.228v0.246h0.246l-0.246 6.878h-0.368v0.491h1.965v-0.491z"></path>
      <path fill="#6d87a4" style="fill: var(--color1, #6d87a4)" d="M20.97 25.281l-0.246-6.878h0.246v-0.246h-1.228v0.246h0.246l-0.246 6.878h-0.27v0.491h1.965v-0.491z"></path>
      <path fill="#637b95" style="fill: var(--color4, #637b95)" d="M21.707 17.175h-10.316c-0.147 0-0.246 0.098-0.246 0.246v0.246c0 0.147 0.098 0.246 0.246 0.246h0.246v0.246h9.825v-0.246h0.246c0.147 0 0.246-0.098 0.246-0.246v-0.246c0-0.147-0.098-0.246-0.246-0.246z"></path>
    </svg>