<?xml version="1.0" encoding="UTF-8" standalone="no"?>
<!DOCTYPE svg PUBLIC "-//W3C//DTD SVG 20010904//EN"
              "http://www.w3.org/TR/2001/REC-SVG-20010904/DTD/svg10.dtd">

<svg xmlns="http://www.w3.org/2000/svg"
     width="0.5in" height="0.5in"
     viewBox="0 0 32 32">
      <title>Economie, finances, consommation</title>
      <path fill="#dbdbdb" style="fill: var(--color2, #dbdbdb)" d="M24.446 25.27v-1.096c0-0.086-0.086-0.173-0.173-0.173 0 0 0 0 0 0h-16.204c-0.086 0-0.173 0.086-0.173 0.173 0 0 0 0 0 0v1.096h16.55z"></path>
      <path fill="#6d87a4" style="fill: var(--color1, #6d87a4)" d="M25.282 12.93l-8.823-4.844c-0.173-0.115-0.375-0.115-0.548 0l-8.852 4.844c-0.144 0.058-0.26 0.231-0.231 0.404v0.577c0 0.173 0.144 0.317 0.317 0.317h18.049c0.173 0 0.317-0.144 0.317-0.317v-0.577c0-0.173-0.086-0.317-0.231-0.404z"></path>
      <path fill="#dbdbdb" style="fill: var(--color2, #dbdbdb)" d="M8.56 22.762c-0.086 0-0.173 0.086-0.173 0.173 0 0 0 0 0 0v0.519c0 0.086 0.086 0.173 0.173 0.173 0 0 0 0 0 0h1.759c0.086 0 0.173-0.086 0.173-0.173 0 0 0 0 0 0v-0.519c0-0.086-0.086-0.173-0.173-0.173 0 0 0 0 0 0h-0.231v-7.295h0.231c0.086 0 0.173-0.086 0.173-0.173 0 0 0 0 0 0v-0.519c0-0.086-0.086-0.173-0.173-0.173 0 0 0 0 0 0h-1.759c-0.086 0-0.173 0.086-0.173 0.173 0 0 0 0 0 0v0.519c0 0.086 0.086 0.173 0.173 0.173 0 0 0 0 0 0h0.231v7.324h-0.231z"></path>
      <path fill="#dbdbdb" style="fill: var(--color2, #dbdbdb)" d="M22.024 22.762c-0.086 0-0.173 0.086-0.173 0.173 0 0 0 0 0 0v0.519c0 0.086 0.086 0.173 0.173 0.173 0 0 0 0 0 0h1.759c0.086 0 0.173-0.086 0.173-0.173 0 0 0 0 0 0v-0.519c0-0.086-0.086-0.173-0.173-0.173 0 0 0 0 0 0h-0.231v-7.295h0.231c0.086 0 0.173-0.086 0.173-0.173 0 0 0 0 0 0v-0.519c0-0.086-0.086-0.173-0.173-0.173 0 0 0 0 0 0h-1.759c-0.086 0-0.173 0.086-0.173 0.173 0 0 0 0 0 0v0.519c0 0.086 0.086 0.173 0.173 0.173 0 0 0 0 0 0h0.231v7.324h-0.231z"></path>
      <path fill="#dbdbdb" style="fill: var(--color2, #dbdbdb)" d="M19.055 22.762c-0.086 0-0.173 0.086-0.173 0.173 0 0 0 0 0 0v0.519c0 0.086 0.086 0.173 0.173 0.173 0 0 0 0 0 0h1.759c0.086 0 0.173-0.086 0.173-0.173 0 0 0 0 0 0v-0.519c0-0.086-0.086-0.173-0.173-0.173 0 0 0 0 0 0h-0.231v-7.295h0.231c0.086 0 0.173-0.086 0.173-0.173 0 0 0 0 0 0v-0.519c0-0.086-0.086-0.173-0.173-0.173 0 0 0 0 0 0h-1.759c-0.086 0-0.173 0.086-0.173 0.173 0 0 0 0 0 0v0.519c0 0.086 0.086 0.173 0.173 0.173 0 0 0 0 0 0h0.231v7.324h-0.231z"></path>
      <path fill="#dbdbdb" style="fill: var(--color2, #dbdbdb)" d="M11.558 22.762c-0.086 0-0.173 0.086-0.173 0.173 0 0 0 0 0 0v0.519c0 0.086 0.086 0.173 0.173 0.173 0 0 0 0 0 0h1.759c0.086 0 0.173-0.086 0.173-0.173 0 0 0 0 0 0v-0.519c0-0.086-0.086-0.173-0.173-0.173 0 0 0 0 0 0h-0.231v-7.295h0.231c0.086 0 0.173-0.086 0.173-0.173 0 0 0 0 0 0v-0.519c0-0.086-0.086-0.173-0.173-0.173 0 0 0 0 0 0h-1.759c-0.086 0-0.173 0.086-0.173 0.173 0 0 0 0 0 0v0.519c0 0.086 0.086 0.173 0.173 0.173 0 0 0 0 0 0h0.231v7.324h-0.231z"></path>
      <path fill="#6d87a4" style="fill: var(--color1, #6d87a4)" d="M6.512 25.27h19.029v1.73h-19.029v-1.73z"></path>
      <path fill="#6d87a4" style="fill: var(--color1, #6d87a4)" d="M14.47 20.052h0.577c0.058 0.231 0.173 0.433 0.317 0.634 0.173 0.231 0.404 0.404 0.634 0.519s0.49 0.173 0.75 0.202h0.058c0.375 0 0.721-0.115 1.038-0.288l-0.317-0.634c-0.231 0.144-0.49 0.202-0.75 0.231-0.404 0-0.778-0.231-0.952-0.577h1.124v-0.721h-1.297c0-0.058-0.029-0.144-0.029-0.231s0-0.173 0.029-0.231h1.297v-0.721h-1.096c0.202-0.346 0.548-0.577 0.952-0.577 0.259 0 0.519 0.086 0.75 0.231l0.317-0.663c-0.317-0.173-0.663-0.259-1.038-0.288h-0.058c-0.259 0-0.519 0.058-0.75 0.173-0.259 0.115-0.461 0.288-0.634 0.519-0.144 0.173-0.231 0.375-0.317 0.605h-0.577v0.721h0.461c0 0.086-0.029 0.173-0.029 0.231v0.231h-0.461v0.634z"></path>
    </svg>