<?xml version="1.0" encoding="UTF-8" standalone="no"?>
<!DOCTYPE svg PUBLIC "-//W3C//DTD SVG 20010904//EN"
              "http://www.w3.org/TR/2001/REC-SVG-20010904/DTD/svg10.dtd">

<svg xmlns="http://www.w3.org/2000/svg"
     width="0.5in" height="0.5in"
     viewBox="0 0 32 32">
      <title>Enseignement, recherche</title>
      <path fill="#dbdbdb" style="fill: var(--color2, #dbdbdb)" d="M5.979 13v13.157h7.696v-13.157h-7.696zM13.029 24.171c0 0.149-0.099 0.248-0.248 0.248h-5.809c-0.149 0-0.248-0.099-0.248-0.248v-0.099c0-0.149 0.099-0.248 0.248-0.248h5.809c0.149 0 0.248 0.099 0.248 0.248v0.099zM13.029 22.358c0 0.149-0.099 0.248-0.248 0.248h-5.809c-0.149 0-0.248-0.099-0.248-0.248v-0.099c0-0.149 0.099-0.248 0.248-0.248h5.809c0.149 0 0.248 0.099 0.248 0.248v0.099zM13.029 20.844c0 0.149-0.099 0.248-0.248 0.248h-5.809c-0.149 0-0.248-0.099-0.248-0.248v-0.099c0-0.149 0.099-0.248 0.248-0.248h5.809c0.149 0 0.248 0.099 0.248 0.248v0.099zM13.029 19.33c0 0.149-0.099 0.248-0.248 0.248h-5.809c-0.149 0-0.248-0.099-0.248-0.248v-0.099c0-0.149 0.099-0.248 0.248-0.248h5.809c0.149 0 0.248 0.099 0.248 0.248v0.099zM13.029 17.816c0 0.149-0.099 0.248-0.248 0.248h-5.809c-0.149 0-0.248-0.099-0.248-0.248v-0.099c0-0.149 0.099-0.248 0.248-0.248h5.809c0.149 0 0.248 0.099 0.248 0.248v0.099zM13.029 16.301c0 0.149-0.099 0.248-0.248 0.248h-5.809c-0.149 0-0.248-0.099-0.248-0.248v-0.075c0-0.149 0.099-0.248 0.248-0.248h5.809c0.149 0 0.248 0.099 0.248 0.248v0.075zM13.029 14.812c0 0.149-0.099 0.248-0.248 0.248h-5.809c-0.149 0-0.248-0.099-0.248-0.248v-0.075c0-0.149 0.099-0.248 0.248-0.248h5.809c0.149 0 0.248 0.099 0.248 0.248v0.075z"></path>
      <path fill="#6d87a4" style="fill: var(--color1, #6d87a4)" d="M28.644 26.107v-2.259c0.298-0.025 0.521-0.223 0.521-1.489 0-1.787-0.472-2.731-0.695-2.731s-0.695 0.919-0.695 2.731c0 0.919 0.124 1.291 0.298 1.415v2.334h0.571z"></path>
      <path fill="#6d87a4" style="fill: var(--color1, #6d87a4)" d="M25.938 26.107v-3.401c0.521-0.025 1.018-0.223 1.018-2.408 0-2.607-0.695-4.27-1.192-4.27s-1.167 1.663-1.167 4.27c0 1.887 0.372 2.284 0.794 2.383v3.426h0.546z"></path>
      <path fill="#6d87a4" style="fill: var(--color1, #6d87a4)" d="M23.605 15.234c0 0.549-0.445 0.993-0.993 0.993s-0.993-0.445-0.993-0.993c0-0.549 0.445-0.993 0.993-0.993s0.993 0.445 0.993 0.993z"></path>
      <path fill="#dbdbdb" style="fill: var(--color2, #dbdbdb)" d="M15.661 17.468v8.689h7.696v-8.689h-7.696zM22.612 24.171c0 0.149-0.099 0.248-0.248 0.248h-5.809c-0.149 0-0.248-0.099-0.248-0.248v-0.099c0-0.149 0.099-0.248 0.248-0.248h5.809c0.149 0 0.248 0.099 0.248 0.248v0.099zM22.612 22.358c0 0.149-0.099 0.248-0.248 0.248h-5.809c-0.149 0-0.248-0.099-0.248-0.248v-0.099c0-0.149 0.099-0.248 0.248-0.248h5.809c0.149 0 0.248 0.099 0.248 0.248v0.099zM22.612 20.844c0 0.149-0.099 0.248-0.248 0.248h-5.809c-0.149 0-0.248-0.099-0.248-0.248v-0.099c0-0.149 0.099-0.248 0.248-0.248h5.809c0.149 0 0.248 0.099 0.248 0.248v0.099zM22.612 19.33c0 0.149-0.099 0.248-0.248 0.248h-5.809c-0.149 0-0.248-0.099-0.248-0.248v-0.099c0-0.149 0.099-0.248 0.248-0.248h5.809c0.149 0 0.248 0.099 0.248 0.248v0.099z"></path>
      <path fill="#6d87a4" style="fill: var(--color1, #6d87a4)" d="M23.605 26.156h0.993v-1.266c0-0.546-0.447-0.968-0.993-0.968 0 0 0 0 0 0v0 2.234z"></path>
      <path fill="#cdcdcd" style="fill: var(--color5, #cdcdcd)" d="M1.014 26.504h30.037c0.149 0 0.248 0.099 0.248 0.248v0c0 0.149-0.099 0.248-0.248 0.248h-30.037c-0.149 0-0.248-0.099-0.248-0.248v0c0-0.124 0.099-0.248 0.248-0.248z"></path>
      <path fill="#6d87a4" style="fill: var(--color1, #6d87a4)" d="M3 22.681h6.703v3.475h-6.703v-3.475z"></path>
      <path fill="#647b96" style="fill: var(--color6, #647b96)" d="M4.242 24.171h4.22v1.986h-4.22v-1.986z"></path>
      <path fill="#6d87a4" style="fill: var(--color1, #6d87a4)" d="M10.2 23.922h4.965v2.234h-4.965v-2.234z"></path>
    </svg>