<?xml version="1.0" encoding="UTF-8" standalone="no"?>
<!DOCTYPE svg PUBLIC "-//W3C//DTD SVG 20010904//EN"
              "http://www.w3.org/TR/2001/REC-SVG-20010904/DTD/svg10.dtd">

<svg xmlns="http://www.w3.org/2000/svg"
     width="0.5in" height="0.5in"
     viewBox="0 0 32 32">
      <title>Environnement, logement, transports</title>
      <path fill="#6d87a4" style="fill: var(--color1, #6d87a4)" d="M10.359 20.95c-0.093 0-0.209 0-0.302 0-0.534-0.023-1.045 0.186-1.416 0.58-0.163 0.163-0.279 0.348-0.395 0.557-0.139-0.673-0.186-1.648 0.279-1.834 0.743-0.279 1.37-0.789 1.834-1.416v-0.929h0.441c0.023-0.093 0.047-0.209 0.047-0.302h3.947c-0.348-0.789-1.161-1.463-2.182-1.857 0.047-0.070 0.070-0.139 0.070-0.209 0-0.371-0.488-0.673-1.091-0.673-0.116 0-0.209 0-0.325 0.023-0.186-0.325-0.673-0.534-1.184-0.464-0.65 0.093-1.114 0.534-1.068 1.022 0 0.023 0 0.023 0 0.047-0.697 0.139-1.37 0.441-1.973 0.836v0c-0.070-0.093-0.186-0.139-0.302-0.139-0.070 0-0.139 0.023-0.209 0.070-0.186-0.023-0.348-0.023-0.534-0.023-0.418 0-0.859 0.047-1.254 0.163-0.093-0.047-0.186-0.070-0.279-0.070-0.279-0.023-0.534 0.163-0.604 0.418-0.255 0.139-0.464 0.302-0.673 0.488-0.232-0.047-0.441-0.093-0.65-0.093-0.604 0-1.091 0.348-1.091 0.789 0 0.093 0.023 0.209 0.070 0.279-0.395 0.232-0.697 0.58-0.905 0.975h2.182c0.047 0.232 0.163 0.441 0.371 0.58 0.371 0.302 1.022 0.464 1.904 0.464 0.325 0 0.65 0.116 0.882 0.371 0.604 0.627 0.557 1.834 0.557 1.834v0l-0.255 4.040v0.279c0 0.139 2.531 0.139 2.531 0v-0.279l-0.186-3.111c0.047-0.488 0.232-0.952 0.534-1.323 0.232-0.232 0.557-0.371 0.905-0.348 0.116 0 0.209 0 0.302 0v-0.743z"></path>
      <path fill="#6d87a4" style="fill: var(--color1, #6d87a4)" d="M29.072 16.213v0c0.348-0.047 0.743-0.023 1.114 0.116 0.209-0.209 0.371-0.464 0.418-0.766 0.139-0.743-0.348-1.463-1.114-1.602-0.093-0.023-0.163-0.023-0.255-0.023-0.534 0-1.022 0.302-1.231 0.789 0.047-0.255 0.163-0.488 0.325-0.673-0.093-0.116-0.186-0.209-0.302-0.302-1.114-0.905-2.763-0.72-3.645 0.395-0.697 0.882-0.766 2.090-0.163 3.041-0.255-0.232-0.464-0.511-0.604-0.836-0.65 0.232-1.602 1.207-1.834 1.857l3.111 0.441c0.325 0.023-0.255 0-0.255 0.348l0.697 0.697c-0.163-0.023-0.325 0.023-0.441 0.139v1.393c0.348 0.139 1.114 0.348 1.486 0.232v5.178h0.673v-5.572c0.070 0.047 0.116 0.093 0.186 0.116 0.464 0.255 1.045 0.070 1.277-0.395 0.209-0.418 0.116-0.929-0.255-1.207 0.441 0.209 0.65 0.743 0.464 1.207 1.254 0.186 2.415-0.697 2.6-1.95s-0.697-2.415-1.95-2.6c-0.093-0.023-0.209-0.023-0.302-0.023z"></path>
      <path fill="#6d87a4" style="fill: var(--color1, #6d87a4)" d="M27.494 26.638v0h-0.441z"></path>
      <path fill="#6d87a4" style="fill: var(--color1, #6d87a4)" d="M29.305 26.638h-1.091z"></path>
      <path fill="#6d87a4" style="fill: var(--color1, #6d87a4)" d="M28.724 26.011c-0.302 0.023-0.58 0.186-0.743 0.441 0 0 0.047-0.697 0.371-0.905-0.58 0.302-0.557 0.72-0.557 0.813-0.023-0.116-0.139-0.604-0.441-0.743 0.163 0.232 0.255 0.511 0.255 0.813-0.093-0.139-0.255-0.232-0.418-0.255 0.139 0.093 0.255 0.232 0.279 0.395h0.743c0.093-0.232 0.255-0.441 0.511-0.557z"></path>
      <path fill="#6d87a4" style="fill: var(--color1, #6d87a4)" d="M26.147 26.359c-0.093 0.023-0.186 0.093-0.255 0.163 0-0.186 0.047-0.371 0.163-0.511-0.209 0.070-0.279 0.395-0.279 0.464 0-0.070 0.023-0.302-0.302-0.488v0c0.116 0.163 0.186 0.348 0.209 0.534-0.047-0.070-0.116-0.139-0.209-0.186s-0.163-0.070-0.255-0.093c0.116 0.047 0.209 0.116 0.255 0.232 0.023 0.047 0.047 0.070 0.047 0.116h0.464c0-0.093 0.070-0.186 0.163-0.232z"></path>
      <path fill="#6d87a4" style="fill: var(--color1, #6d87a4)" d="M25.961 26.638v0z"></path>
      <path fill="#e8e8e8" style="fill: var(--color3, #e8e8e8)" d="M24.893 26.592v-6.315h-14.534v6.315h14.534z"></path>
      <path fill="#dbdbdb" style="fill: var(--color2, #dbdbdb)" d="M25.404 19.719c0 0.116-0.093 0.186-0.186 0.186h-15.114c-0.139 0-0.255-0.116-0.255-0.255v-3.158c0-0.116 0.093-0.186 0.186-0.186 0 0 14.998 2.159 15.184 2.182 0.302 0 0.186 1.231 0.186 1.231z"></path>
      <path fill="#6d87a4" style="fill: var(--color1, #6d87a4)" d="M14.515 22.784h2.322v3.784h-2.322v-3.784z"></path>
      <path fill="#6d87a4" style="fill: var(--color1, #6d87a4)" d="M11.776 22.784h2.322v3.784h-2.322v-3.784z"></path>
      <path fill="#c0c0c0" style="fill: var(--color7, #c0c0c0)" d="M11.311 22.087h5.804c0.139 0 0.232 0.093 0.232 0.232s-0.093 0.232-0.232 0.232h-5.804c-0.139 0-0.232-0.093-0.232-0.232s0.093-0.232 0.232-0.232z"></path>
      <path fill="#6d87a4" style="fill: var(--color1, #6d87a4)" d="M18.509 23.48h1.857c0.139 0 0.232 0.093 0.232 0.232v1.161c0 0.139-0.093 0.232-0.232 0.232h-1.857c-0.139 0-0.232-0.093-0.232-0.232v-1.161c0-0.116 0.093-0.232 0.232-0.232z"></path>
      <path fill="#6d87a4" style="fill: var(--color1, #6d87a4)" d="M21.295 23.48h1.857c0.139 0 0.232 0.093 0.232 0.232v1.161c0 0.139-0.093 0.232-0.232 0.232h-1.857c-0.139 0-0.232-0.093-0.232-0.232v-1.161c0-0.116 0.093-0.232 0.232-0.232z"></path>
      <path fill="#e8e8e8" style="fill: var(--color3, #e8e8e8)" d="M5.159 26.592h23.542c0.139 0 0.232 0.093 0.232 0.232v0c0 0.139-0.093 0.232-0.232 0.232h-23.542c-0.139 0-0.232-0.093-0.232-0.232v0c0-0.139 0.093-0.232 0.232-0.232z"></path>
    </svg>