<?xml version="1.0" encoding="UTF-8" standalone="no"?>
<!DOCTYPE svg PUBLIC "-//W3C//DTD SVG 20010904//EN"
              "http://www.w3.org/TR/2001/REC-SVG-20010904/DTD/svg10.dtd">

<svg xmlns="http://www.w3.org/2000/svg"
     width="0.5in" height="0.5in"
     viewBox="0 0 32 32">
      <path fill="#6d87a4" style="fill: var(--color1, #6d87a4)" d="M19.867 9.913h-4.075v-2.821h4.075l-0.627 1.411z"></path>
      <path fill="#d9d9da" style="fill: var(--color10, #d9d9da)" d="M15.635 6.841h0.596v5.329h-0.596v-5.329z"></path>
      <path fill="#e8e8e8" style="fill: var(--color3, #e8e8e8)" d="M21.622 17.311l-5.706-5.706-5.706 5.706h-4.326v8.934h20.063v-8.934h-4.326zM15.948 18.816c-0.69 0-1.254-0.564-1.254-1.254s0.564-1.254 1.254-1.254 1.254 0.564 1.254 1.254-0.564 1.254-1.254 1.254z"></path>
      <path fill="#6d87a4" style="fill: var(--color1, #6d87a4)" d="M19.71 19.443h1.567c0.188 0 0.313 0.125 0.313 0.313v1.881c0 0.188-0.125 0.313-0.313 0.313h-1.567c-0.188 0-0.313-0.125-0.313-0.313v-1.881c0-0.188 0.125-0.313 0.313-0.313z"></path>
      <path fill="#6d87a4" style="fill: var(--color1, #6d87a4)" d="M23.158 19.443h1.567c0.188 0 0.313 0.125 0.313 0.313v1.881c0 0.188-0.125 0.313-0.313 0.313h-1.567c-0.188 0-0.313-0.125-0.313-0.313v-1.881c0-0.188 0.125-0.313 0.313-0.313z"></path>
      <path fill="#6d87a4" style="fill: var(--color1, #6d87a4)" d="M19.71 22.891h1.567c0.188 0 0.313 0.125 0.313 0.313v1.881c0 0.188-0.125 0.313-0.313 0.313h-1.567c-0.188 0-0.313-0.125-0.313-0.313v-1.881c0-0.188 0.125-0.313 0.313-0.313z"></path>
      <path fill="#6d87a4" style="fill: var(--color1, #6d87a4)" d="M23.158 22.891h1.567c0.188 0 0.313 0.125 0.313 0.313v1.881c0 0.188-0.125 0.313-0.313 0.313h-1.567c-0.188 0-0.313-0.125-0.313-0.313v-1.881c0-0.188 0.125-0.313 0.313-0.313z"></path>
      <path fill="#6d87a4" style="fill: var(--color1, #6d87a4)" d="M7.17 19.443h1.567c0.188 0 0.313 0.125 0.313 0.313v1.881c0 0.188-0.125 0.313-0.313 0.313h-1.567c-0.188 0-0.313-0.125-0.313-0.313v-1.881c0-0.188 0.125-0.313 0.313-0.313z"></path>
      <path fill="#6d87a4" style="fill: var(--color1, #6d87a4)" d="M10.619 19.443h1.567c0.188 0 0.313 0.125 0.313 0.313v1.881c0 0.188-0.125 0.313-0.313 0.313h-1.567c-0.188 0-0.313-0.125-0.313-0.313v-1.881c0-0.188 0.125-0.313 0.313-0.313z"></path>
      <path fill="#6d87a4" style="fill: var(--color1, #6d87a4)" d="M7.17 22.891h1.567c0.188 0 0.313 0.125 0.313 0.313v1.881c0 0.188-0.125 0.313-0.313 0.313h-1.567c-0.188 0-0.313-0.125-0.313-0.313v-1.881c0-0.188 0.125-0.313 0.313-0.313z"></path>
      <path fill="#6d87a4" style="fill: var(--color1, #6d87a4)" d="M10.619 22.891h1.567c0.188 0 0.313 0.125 0.313 0.313v1.881c0 0.188-0.125 0.313-0.313 0.313h-1.567c-0.188 0-0.313-0.125-0.313-0.313v-1.881c0-0.188 0.125-0.313 0.313-0.313z"></path>
      <path fill="#6d87a4" style="fill: var(--color1, #6d87a4)" d="M18.143 26.653v-5.016c0-0.188-0.125-0.313-0.313-0.313h-3.762c-0.188 0-0.313 0.125-0.313 0.313v5.016h4.389z"></path>
      <path fill="#6d87a4" style="fill: var(--color1, #6d87a4)" d="M22.030 17.499l-0.094-0.094h5.925l-3.135-4.702h-7.492l-1.035-1.035c-0.157-0.157-0.376-0.157-0.533 0l-1.035 1.035h-7.461l-3.135 4.702h5.925l-0.094 0.094c-0.157 0.157-0.125 0.408 0.031 0.533s0.376 0.125 0.502 0l5.549-5.517 5.549 5.549c0.157 0.157 0.376 0.157 0.533 0s0.157-0.408 0-0.564c0 0 0 0 0 0z"></path>
      <path fill="#cdcdcd" style="fill: var(--color5, #cdcdcd)" d="M5.29 26.214h21.317c0.188 0 0.313 0.125 0.313 0.313v0c0 0.188-0.125 0.313-0.313 0.313h-21.317c-0.188 0-0.313-0.125-0.313-0.313v0c0-0.188 0.125-0.313 0.313-0.313z"></path>
    </svg>