<?xml version="1.0" encoding="UTF-8" standalone="no"?>
<!DOCTYPE svg PUBLIC "-//W3C//DTD SVG 20010904//EN"
              "http://www.w3.org/TR/2001/REC-SVG-20010904/DTD/svg10.dtd">

<svg xmlns="http://www.w3.org/2000/svg"
     width="0.5in" height="0.5in"
     viewBox="0 0 32 32">
      <title>Social, santé</title>
      <path fill="#dbdbdb" style="fill: var(--color2, #dbdbdb)" d="M28.421 9.772c-0.597 2.138-2.829 3.395-4.967 2.798-1.352-0.377-2.389-1.446-2.798-2.798h-1.446v16.663h10.658v-16.663h-1.446zM24.271 26.372h-2.829v-4.936h2.829v4.936zM27.635 26.372h-2.829v-4.936h2.829v4.936z"></path>
      <path fill="#6d87a4" style="fill: var(--color1, #6d87a4)" d="M24.522 5.999c-1.603-0.063-2.955 1.226-2.987 2.829 0 0 0 0 0 0 0.063 1.635 1.478 2.924 3.112 2.861 1.541-0.063 2.767-1.32 2.861-2.861-0.031-1.603-1.383-2.861-2.987-2.829zM26.251 9.143c0 0.126-0.094 0.22-0.22 0.22 0 0 0 0 0 0h-0.912v0.849c0 0.126-0.094 0.22-0.22 0.22 0 0 0 0 0 0h-0.723c-0.126 0-0.22-0.094-0.22-0.189 0 0 0 0 0 0v-0.818h-0.912c-0.126 0-0.22-0.094-0.22-0.189 0 0 0 0 0-0.031v-0.692c0-0.126 0.094-0.22 0.22-0.22 0 0 0 0 0 0h0.912v-0.818c-0.031-0.126 0.094-0.22 0.189-0.22 0 0 0 0 0 0h0.723c0.126 0 0.22 0.094 0.22 0.189 0 0 0 0 0 0v0.849h0.912c0.157 0 0.252 0.094 0.252 0.22 0 0 0 0 0 0v0.629z"></path>
      <path fill="#e8e8e8" style="fill: var(--color3, #e8e8e8)" d="M1.729 14.425v12.136h16.789v-12.136h-16.789zM4.558 23.197h-1.352v-1.729h1.383l-0.031 1.729zM4.558 19.738h-1.352v-1.729h1.383l-0.031 1.729zM7.671 23.197h-1.352v-1.729h1.383l-0.031 1.729zM7.671 19.738h-1.352v-1.729h1.383l-0.031 1.729zM10.815 23.197h-1.352v-1.729h1.383l-0.031 1.729zM10.815 19.738h-1.352v-1.729h1.383l-0.031 1.729zM13.927 23.197h-1.352v-1.729h1.383l-0.031 1.729zM13.927 19.738h-1.352v-1.729h1.383l-0.031 1.729zM17.071 23.197h-1.383v-1.729h1.383v1.729zM17.071 19.738h-1.383v-1.729h1.383v1.729z"></path>
      <path fill="#6d87a4" style="fill: var(--color1, #6d87a4)" d="M21.221 14.834h1.383v1.729h-1.383v-1.729z"></path>
      <path fill="#6d87a4" style="fill: var(--color1, #6d87a4)" d="M23.988 14.834h1.383v1.729h-1.383v-1.729z"></path>
      <path fill="#6d87a4" style="fill: var(--color1, #6d87a4)" d="M26.786 14.834h1.383v1.729h-1.383v-1.729z"></path>
      <path fill="#6d87a4" style="fill: var(--color1, #6d87a4)" d="M21.221 17.946h1.383v1.729h-1.383v-1.729z"></path>
      <path fill="#6d87a4" style="fill: var(--color1, #6d87a4)" d="M23.988 17.946h1.383v1.729h-1.383v-1.729z"></path>
      <path fill="#6d87a4" style="fill: var(--color1, #6d87a4)" d="M26.786 17.946h1.383v1.729h-1.383v-1.729z"></path>
      <path fill="#6d87a4" style="fill: var(--color1, #6d87a4)" d="M9.337 14.425c0-0.346-0.283-0.629-0.629-0.629h-3.144c-0.346 0-0.629 0.283-0.629 0.629h4.402z"></path>
      <path fill="#6d87a4" style="fill: var(--color1, #6d87a4)" d="M15.31 14.425c0-0.346-0.283-0.629-0.629-0.629h-3.144c-0.346 0-0.629 0.283-0.629 0.629h4.402z"></path>
      <path fill="#cdcdcd" style="fill: var(--color5, #cdcdcd)" d="M1.414 26.372h29.553c0.189 0 0.314 0.126 0.314 0.314s-0.126 0.314-0.314 0.314h-29.553c-0.189 0-0.314-0.126-0.314-0.314s0.126-0.314 0.314-0.314z"></path>
    </svg>