<?xml version="1.0" encoding="UTF-8" standalone="no"?>
<!DOCTYPE svg PUBLIC "-//W3C//DTD SVG 20010904//EN"
              "http://www.w3.org/TR/2001/REC-SVG-20010904/DTD/svg10.dtd">

<svg xmlns="http://www.w3.org/2000/svg"
     width="0.5in" height="0.5in"
     viewBox="0 0 32 32">
      <title>Travail, emploi, formation</title>
      <path fill="#6d87a4" style="fill: var(--color1, #6d87a4)" d="M-1.604 26.256v0-1.445c0.542-0.12 0.903-0.572 0.903-1.114v-0.723c0-0.632-0.512-1.174-1.144-1.174 0 0 0 0 0 0-0.632 0-1.144 0.542-1.144 1.174v0.723c0 0.542 0.361 1.024 0.903 1.114v1.445h0.482z"></path>
      <path fill="#6d87a4" style="fill: var(--color1, #6d87a4)" d="M34.44 26.256v0-1.445c0.542-0.12 0.903-0.572 0.903-1.114v-0.723c0.030-0.632-0.452-1.174-1.084-1.204s-1.174 0.451-1.204 1.084c0 0.030 0 0.090 0 0.12v0.723c0 0.542 0.361 1.024 0.903 1.114v1.445h0.482z"></path>
      <path fill="#dbdbdb" style="fill: var(--color2, #dbdbdb)" d="M32.302 26.376v-8.010l-2.108-0.693v-7.227l-4.607 0.933v-0.933l-4.637 0.933v14.965l11.352 0.030zM22.787 25.412h-0.873v-0.994h0.873v0.994zM22.787 23.666h-0.873v-0.994h0.873v0.994zM22.787 21.95h-0.873v-0.994h0.873v0.994zM22.787 20.203h-0.873v-0.994h0.873v0.994zM22.787 18.487h-0.873v-0.994h0.873v0.994zM22.787 16.77h-0.873v-0.994h0.873v0.994zM22.787 15.024h-0.873v-0.994h0.873v0.994zM22.787 13.308h-0.873v-0.994h0.873v0.994zM24.684 25.412h-0.873v-0.994h0.873v0.994zM24.684 23.666h-0.873v-0.994h0.873v0.994zM24.684 21.95h-0.873v-0.994h0.873v0.994zM24.684 20.203h-0.873v-0.994h0.873v0.994zM24.684 18.487h-0.873v-0.994h0.873v0.994zM24.684 16.77h-0.873v-0.994h0.873v0.994zM24.684 15.024h-0.873v-0.994h0.873v0.994zM24.684 13.308h-0.873v-0.994h0.873v0.994zM27.394 25.382h-0.873v-0.994h0.873v0.994zM27.394 23.666h-0.873v-0.994h0.873v0.994zM27.394 21.95h-0.873v-0.994h0.873v0.994zM27.394 20.203h-0.873v-0.994h0.873v0.994zM27.394 18.487h-0.873v-0.994h0.873v0.994zM27.394 16.74h-0.873v-0.994h0.873v0.994zM27.394 15.024h-0.873v-0.994h0.873v0.994zM27.394 13.308h-0.873v-0.994h0.873v0.994zM29.291 25.382h-0.873v-0.994h0.873v0.994zM29.291 23.666h-0.873v-0.994h0.873v0.994zM29.291 21.95h-0.873v-0.994h0.873v0.994zM29.291 20.203h-0.873v-0.994h0.873v0.994zM29.291 18.487h-0.873v-0.994h0.873v0.994zM29.291 16.74h-0.873v-0.994h0.873v0.994zM29.291 15.024h-0.873v-0.994h0.873v0.994zM29.291 13.308h-0.873v-0.994h0.873v0.994zM31.549 25.382h-0.873v-0.994h0.873v0.994zM31.549 23.666h-0.873v-0.994h0.873v0.994zM31.549 21.92h-0.873v-0.994h0.873v0.994zM31.549 20.203h-0.873v-0.994h0.873v0.994z"></path>
      <path fill="#e8e8e8" style="fill: var(--color3, #e8e8e8)" d="M20.137 26.346v-8.070l-2.138-0.693v-6.233l-7.739-0.813v15.809h9.877zM17.246 25.322h-6.203v-0.632h6.203v0.632zM17.246 23.636h-6.203v-0.632h6.203v0.632zM17.246 21.95h-6.203v-0.632h6.203v0.632zM17.246 20.263h-6.203v-0.632h6.203v0.632zM17.246 18.547h-6.203v-0.632h6.203v0.632zM17.246 16.861h-6.203v-0.632h6.203v0.632zM17.246 15.174h-6.203v-0.632h6.203v0.632zM17.246 13.458h-6.203v-0.632h6.203v0.632zM19.384 25.352h-0.873v-0.994h0.873v0.994zM19.384 23.636h-0.873v-0.994h0.873v0.994zM19.384 21.89h-0.873v-0.994h0.873v0.994zM19.384 20.173h-0.873v-0.994h0.873v0.994z"></path>
      <path fill="#dbdbdb" style="fill: var(--color2, #dbdbdb)" d="M9.748 26.165v-17.676h-0.271v-0.693h-4.185v0.693h-0.271v17.676h-0.301v-15.628l-5.089 0.813v15.026h10.118v-0.211zM1.768 25.352h-0.873v-0.994h0.873v0.994zM1.768 23.636h-0.873v-0.994h0.873v0.994zM1.768 21.89h-0.873v-0.994h0.873v0.994zM1.768 20.173h-0.873v-0.994h0.873v0.994zM1.768 18.457h-0.873v-1.024h0.873v1.024zM1.768 16.71h-0.873v-0.994h0.873v0.994zM1.768 14.994h-0.873v-0.994h0.873v0.994zM1.768 13.247h-0.873v-0.994h0.873v0.994zM3.666 25.352h-0.873v-0.994h0.873v0.994zM3.666 23.636h-0.873v-0.994h0.873v0.994zM3.666 21.89h-0.873v-0.994h0.873v0.994zM3.666 20.173h-0.873v-0.994h0.873v0.994zM3.666 18.457h-0.873v-1.024h0.873v1.024zM3.666 16.71h-0.873v-0.994h0.873v0.994zM3.666 14.994h-0.873v-0.994h0.873v0.994zM3.666 13.247h-0.873v-0.994h0.873v0.994zM6.075 9.393h0.873v1.024h-0.873v-1.024zM6.075 11.14h0.873v0.994h-0.873v-0.994zM6.075 12.856h0.873v0.994h-0.873v-0.994zM6.075 14.572h0.873v0.994h-0.873v-0.994zM6.075 16.319h0.873v0.994h-0.873v-0.994zM6.075 18.035h0.873v0.994h-0.873v-0.994zM6.075 19.782h0.873v0.994h-0.873v-0.994zM6.075 21.498h0.873v0.994h-0.873v-0.994zM8.845 22.552h-0.873v-0.994h0.873v0.994zM8.845 20.836h-0.873v-1.024h0.873v1.024zM8.845 19.059h-0.873v-1.024h0.873v1.024zM8.845 17.343h-0.873v-1.024h0.873v1.024zM8.845 15.596h-0.873v-1.024h0.873v1.024zM8.845 13.88h-0.873v-1.024h0.873v1.024zM8.845 12.133h-0.873v-1.024h0.873v1.024zM8.845 10.417h-0.873v-1.024h0.873v1.024z"></path>
      <path fill="#dbdbdb" style="fill: var(--color2, #dbdbdb)" d="M-2.899 26.195h38.242c0.181 0 0.301 0.12 0.301 0.301v0c0 0.181-0.12 0.301-0.301 0.301h-38.242c-0.181 0-0.301-0.12-0.301-0.301v0c0-0.151 0.12-0.301 0.301-0.301z"></path>
      <path fill="#6d87a4" style="fill: var(--color1, #6d87a4)" d="M23.298 25.744c0-0.12-0.030-0.241-0.090-0.361l-0.753-1.626c-0.060-0.151-0.12-0.271-0.271-0.271h-6.233c0-0.151-0.12-0.241-0.271-0.241h-0.602l0.963-0.994c0.060-0.060 0.060-0.151 0-0.181 0 0 0 0 0 0l-1.295-1.264c-0.060-0.060-0.151-0.060-0.211 0s-0.060 0.151 0 0.181c0 0 0 0 0 0l1.204 1.144-1.054 1.054h-0.903c-0.151 0-0.241 0.090-0.271 0.241h-2.349c-0.151 0-0.211 0.090-0.271 0.271l-0.753 1.656c-0.060 0.12-0.090 0.241-0.090 0.361v0.451c0 0.151 0.12 0.271 0.271 0.271 0 0 0 0 0 0h1.445c0.060 0.241 0.331 0.392 0.572 0.331 0.151-0.030 0.301-0.181 0.331-0.331h0.422c0.060 0.241 0.331 0.392 0.572 0.331 0.151-0.030 0.301-0.181 0.331-0.331h5.33c0.060 0.241 0.331 0.392 0.572 0.331 0.151-0.030 0.301-0.181 0.331-0.331h0.422c0.060 0.241 0.331 0.392 0.572 0.331 0.151-0.030 0.301-0.181 0.331-0.331h1.445c0.151 0 0.271-0.12 0.271-0.271 0 0 0 0 0 0v-0.422zM11.736 25.262c0 0.151-0.12 0.271-0.271 0.271 0 0 0 0 0 0h-0.602c-0.12 0-0.241-0.090-0.271-0.241 0-0.060 0-0.090 0.030-0.12l0.422-0.994c0.060-0.151 0.12-0.271 0.271-0.271h0.151c0.151 0 0.271 0.12 0.271 0.271 0 0 0 0 0 0v1.084zM12.217 26.557c-0.090 0-0.151-0.030-0.181-0.090h0.361c-0.030 0.060-0.090 0.090-0.181 0.090v0zM13.572 26.557c-0.090 0-0.151-0.030-0.211-0.090h0.361c-0.030 0.060-0.090 0.090-0.151 0.090v0zM15.53 25.262c0 0.151-0.12 0.271-0.271 0.271 0 0 0 0 0 0h-2.83c-0.151 0-0.271-0.12-0.271-0.271v-1.084c0-0.151 0.12-0.271 0.271-0.271 0 0 0 0 0 0h2.83c0.151 0 0.271 0.12 0.271 0.271 0 0 0 0 0 0v1.084zM17.427 24.72v0.542c0 0.060-0.030 0.151-0.090 0.181-0.060 0.060-0.12 0.090-0.181 0.090h-0.933c-0.060 0-0.151-0.030-0.181-0.090-0.060-0.060-0.090-0.12-0.090-0.181v-1.084c0-0.060 0.030-0.151 0.090-0.181 0.060-0.060 0.12-0.090 0.181-0.090h0.933c0.060 0 0.151 0.030 0.181 0.090 0.060 0.060 0.090 0.12 0.090 0.181v0.542zM19.775 26.557c-0.090 0-0.151-0.030-0.181-0.090h0.392c-0.030 0.060-0.12 0.090-0.211 0.090v0zM18.089 25.533c-0.151 0-0.271-0.12-0.271-0.271 0 0 0 0 0 0v-1.084c0-0.151 0.12-0.271 0.271-0.271 0 0 0 0 0 0h2.83c0.151 0 0.271 0.12 0.271 0.271 0 0 0 0 0 0v1.084c0 0.151-0.12 0.271-0.271 0.271 0 0 0 0 0 0h-2.83zM21.1 26.557c-0.090 0-0.151-0.030-0.181-0.090h0.361c-0.030 0.060-0.090 0.090-0.181 0.090v0zM22.485 25.533h-0.602c-0.151 0-0.271-0.12-0.271-0.271 0 0 0 0 0 0v-1.084c0-0.151 0.12-0.271 0.271-0.271 0 0 0 0 0 0h0.151c0.151 0 0.211 0.12 0.271 0.271l0.422 0.994c0.060 0.12 0.030 0.271-0.090 0.331-0.060 0-0.090 0.030-0.151 0.030v0z"></path>
    </svg>